<svg width="36" height="37" viewBox="0 0 36 37" fill="none" xmlns="http://www.w3.org/2000/svg">
<path d="M12.375 2.1875V0.5H9V2.1875V5H4.5V9.5H1.6875H0V12.875H1.6875H4.5V16.8125H1.6875H0V20.1875H1.6875H4.5V24.125H1.6875H0V27.5H1.6875H4.5V32H9V34.8125V36.5H12.375V34.8125V32H16.3125V34.8125V36.5H19.6875V34.8125V32H23.625V34.8125V36.5H27V34.8125V32H31.5V27.5H34.3125H36V24.125H34.3125H31.5V20.1875H34.3125H36V16.8125H34.3125H31.5V12.875H34.3125H36V9.5H34.3125H31.5V5H27V2.1875V0.5H23.625V2.1875V5H19.6875V2.1875V0.5H16.3125V2.1875V5H12.375V2.1875ZM24.75 12.875V14V23V24.125H22.5V23V14V12.875H24.75ZM11.3906 24.125H8.92969L9.63281 22.5781L10.6172 20.3281L13.5703 13.5781L13.8516 12.875H15.3281L15.6094 13.5781L18.5625 20.3281L19.5469 22.5781L20.25 24.125H17.7891L17.5078 23.4922L16.8047 21.875H12.375L11.6719 23.4922L11.3906 24.125ZM14.625 16.8125L13.3594 19.625H15.8203L14.625 16.8125Z" fill="#00ABC2"/>
</svg>
