<svg width="44" height="36" viewBox="0 0 44 36" fill="none" xmlns="http://www.w3.org/2000/svg">
<path d="M37.1875 0.375H6.5625V12.4062H4.375V11.3125H0V15.6875H4.375V14.5938H6.5625V28.8125H15.3125V35.375L25.1562 28.8125H37.1875V14.5938H39.375V15.6875H43.75V11.3125H39.375V12.4062H37.1875V0.375ZM10.9375 6.9375H32.8125V20.0625H10.9375V6.9375ZM15.3125 15.6875C16.4746 15.6875 17.5 14.7305 17.5 13.5C17.5 12.3379 16.4746 11.3125 15.3125 11.3125C14.082 11.3125 13.125 12.3379 13.125 13.5C13.125 14.7305 14.082 15.6875 15.3125 15.6875ZM30.625 13.5C30.625 12.3379 29.5996 11.3125 28.4375 11.3125C27.207 11.3125 26.25 12.3379 26.25 13.5C26.25 14.7305 27.207 15.6875 28.4375 15.6875C29.5996 15.6875 30.625 14.7305 30.625 13.5Z" fill="#00ABC2"/>
</svg>
