<svg width="44" height="40" viewBox="0 0 44 40" fill="none" xmlns="http://www.w3.org/2000/svg">
<path d="M32 0C27.6096 0 24.2423 2.46813 22 6.14107C19.7573 2.46747 16.3897 0 12 0C8.59853 0 5.49493 1.43573 3.2612 4.04267C1.15827 6.4972 0 9.77507 0 13.2727C0 17.0757 1.4264 20.5916 4.4888 24.3375C7.17387 27.6217 11.0285 31.0003 15.492 34.9125C17.1421 36.3589 18.8485 37.8545 20.662 39.4867C21.0424 39.8289 21.5212 40 22 40C22.4788 40 22.9576 39.8289 23.338 39.4865C25.1515 37.8544 26.8577 36.3588 28.508 34.9124C32.9715 31.0003 36.8261 27.6216 39.5112 24.3373C42.5736 20.5917 44 17.0757 44 13.2727C44 6.12107 39.1003 0 32 0Z" fill="url(#paint0_linear_15_961)"/>
<defs>
<linearGradient id="paint0_linear_15_961" x1="22" y1="40" x2="22" y2="0" gradientUnits="userSpaceOnUse">
<stop stop-color="#FF7596"/>
<stop offset="1" stop-color="#FF8368"/>
</linearGradient>
</defs>
</svg>
