<svg width="48" height="34" viewBox="0 0 48 34" fill="none" xmlns="http://www.w3.org/2000/svg">
<path d="M9.5 8.4375C7.19922 8.4375 5.34375 6.58203 5.34375 4.28125C5.34375 2.05469 7.19922 0.125 9.5 0.125C11.7266 0.125 13.6562 2.05469 13.6562 4.28125C13.6562 6.58203 11.7266 8.4375 9.5 8.4375ZM3.93359 18.2344L4.75 19.4961V16.1562L3.93359 18.2344ZM0 18.5312L2.96875 10.8125H15.7344V10.8867L10.9844 19.1992L10.2422 20.4609L11.1328 21.7227L14.25 26.1016V26.25V31H4.75V26.25L0 18.5312ZM33.25 26.1016L36.3672 21.7227L37.2578 20.4609L36.4414 19.1992L31.6914 10.8867V10.8125H44.5312L47.5 18.5312L42.75 26.25V31H33.25V26.25V26.1016ZM38 8.4375C35.6992 8.4375 33.8438 6.58203 33.8438 4.28125C33.8438 2.05469 35.6992 0.125 38 0.125C40.2266 0.125 42.1562 2.05469 42.1562 4.28125C42.1562 6.58203 40.2266 8.4375 38 8.4375ZM43.4922 18.2344L42.75 16.1562V19.4961L43.4922 18.2344ZM23.75 9.625C21.0781 9.625 19 7.54688 19 4.875C19 2.27734 21.0781 0.125 23.75 0.125C26.3477 0.125 28.5 2.27734 28.5 4.875C28.5 7.54688 26.3477 9.625 23.75 9.625ZM17.2188 20.1641L19 22.5391V17.1211L17.2188 20.1641ZM28.5 17.1211V22.5391L30.207 20.1641L28.5 17.1211ZM34.4375 20.3125L28.5 28.625V33.375H19V28.625L13.0625 20.3125L17.8125 12H29.6875L34.4375 20.3125Z" fill="#00ABC2"/>
</svg>


