<svg width="43" height="29" viewBox="0 0 43 29" fill="none" xmlns="http://www.w3.org/2000/svg">
<path d="M42.75 0.5H0V29H42.75V0.5ZM9.5 24.25H4.75V19.5C7.34766 19.5 9.5 21.6523 9.5 24.25ZM4.75 10V5.25H9.5C9.5 7.92188 7.34766 10 4.75 10ZM33.25 24.25C33.25 21.6523 35.3281 19.5 38 19.5V24.25H33.25ZM38 10C35.3281 10 33.25 7.92188 33.25 5.25H38V10ZM21.375 21.875C17.4414 21.875 14.25 18.6836 14.25 14.75C14.25 10.8164 17.4414 7.625 21.375 7.625C25.3086 7.625 28.5 10.8164 28.5 14.75C28.5 18.6836 25.3086 21.875 21.375 21.875Z" fill="#00ABC2"/>
</svg>
