<svg width="36" height="47" viewBox="0 0 36 47" fill="none" xmlns="http://www.w3.org/2000/svg">
<path d="M29.5856 18.0169C27.5978 15.3756 25.3104 13.4424 22.8598 12.2987C25.6917 10.3926 27.2438 6.53502 27.2438 1.36148C27.2438 0.598961 26.6448 0 25.8823 0H23.1594C20.9265 0 18.9661 1.06205 17.7134 2.72296C16.4608 1.06205 14.5003 0 12.2675 0H9.54454C8.78202 0 8.18306 0.598961 8.18306 1.36148C8.18306 6.53502 9.73515 10.3926 12.567 12.2987C10.1165 13.4424 7.82907 15.3755 5.8414 18.0169C0.994432 24.4976 -1.18394 33.7285 0.640357 39.964C1.78418 43.8033 5.48732 46.4719 9.68069 46.4719H25.7462C29.9395 46.4719 33.6427 43.8033 34.7864 39.964C36.6108 33.7285 34.4324 24.4976 29.5856 18.0169ZM16.352 27.4112H19.0749C21.3351 27.4112 23.1594 29.2356 23.1594 31.4956C23.1594 33.7556 21.3351 35.5801 19.0749 35.5801V36.9415C19.0749 37.7039 18.476 38.303 17.7134 38.303C16.9509 38.303 16.352 37.7039 16.352 36.9415V35.5801C14.0918 35.5801 12.2675 33.7556 12.2675 31.4956C12.2675 30.7331 12.8665 30.1341 13.629 30.1341C14.3915 30.1341 14.9905 30.7331 14.9905 31.4956C14.9905 32.258 15.5894 32.8571 16.352 32.8571H19.0749C19.8374 32.8571 20.4364 32.258 20.4364 31.4956C20.4364 30.7331 19.8374 30.1341 19.0749 30.1341H16.352C14.0918 30.1341 12.2675 28.3097 12.2675 26.0497C12.2675 23.7896 14.0918 21.9652 16.352 21.9652V20.6038C16.352 19.8412 16.9509 19.2423 17.7134 19.2423C18.476 19.2423 19.0749 19.8412 19.0749 20.6038V21.9652C21.3351 21.9652 23.1594 23.7896 23.1594 26.0497C23.1594 26.812 22.5604 27.4112 21.7979 27.4112C21.0354 27.4112 20.4364 26.812 20.4364 26.0497C20.4364 25.2872 19.8374 24.6882 19.0749 24.6882H16.352C15.5894 24.6882 14.9905 25.2872 14.9905 26.0497C14.9905 26.812 15.5894 27.4112 16.352 27.4112Z" fill="#563079"/>
</svg>
