<svg width="34" height="39" viewBox="0 0 34 39" fill="none" xmlns="http://www.w3.org/2000/svg">
<path d="M0.375 10.25V29.25L17 38.75L33.625 29.25V10.25L17 0.75L0.375 10.25ZM6.3125 12.625H6.90625H7.72266L8.01953 13.5156L9.875 19.6016V13.8125V12.625H12.25V13.8125V25.6875V26.875H11.0625H10.4688H9.57812L9.28125 26.0586L7.5 19.9727V25.6875V26.875H5.125V25.6875V13.8125V12.625H6.3125ZM15.8125 12.625H19.375H20.5625V15H19.375H17V18.5625H19.375H20.5625V20.9375H19.375H17V25.6875V26.875H14.625V25.6875V19.75V13.8125V12.625H15.8125ZM22.9375 12.625H25.3125H27.6875H28.875V15H27.6875H26.5V25.6875V26.875H24.125V25.6875V15H22.9375H21.75V12.625H22.9375Z" fill="#00ABC2"/>
</svg>

