<svg width="38" height="39" viewBox="0 0 38 39" fill="none" xmlns="http://www.w3.org/2000/svg">
<path d="M28.4258 15C28.4258 14.6289 28.5 14.2578 28.5 13.8125C28.5 10.0273 27.3125 6.6875 25.457 4.38672C23.6758 2.01172 21.375 0.75 19 0.75C16.5508 0.75 14.25 2.01172 12.4688 4.38672C10.6133 6.6875 9.5 10.0273 9.5 13.8125C9.5 14.2578 9.5 14.6289 9.5 15H17.8125V24.5H13.6562L5.04688 15H7.125C7.125 14.6289 7.125 14.2578 7.125 13.8125C7.125 9.0625 8.75781 4.83203 11.3555 2.01172C3.71094 4.75781 0.59375 11.3633 0 15H1.78125L11.875 26.0586V38.75H26.125V26.0586L36.1445 15H38C37.332 11.3633 34.2148 4.75781 26.5703 2.01172C29.168 4.83203 30.875 9.13672 30.875 13.8125C30.875 14.2578 30.8008 14.6289 30.8008 15H32.8789L24.2695 24.5H20.1875V15H28.4258Z" fill="#00ABC2"/>
</svg>
