<svg width="43" height="34" viewBox="0 0 43 34" fill="none" xmlns="http://www.w3.org/2000/svg">
<path d="M0 9.625V16.75H9.5V0.125C4.23047 0.125 0 4.42969 0 9.625ZM0 33.375H9.5V19.125H0V33.375ZM30.875 33.375V19.125H26.125V23.875H16.625V19.125H11.875V33.375H30.875ZM42.75 33.375V19.125H33.25V33.375H42.75ZM42.75 9.625C42.75 4.42969 38.4453 0.125 33.25 0.125V16.75H42.75V9.625ZM30.875 16.75V0.125H11.875V16.75H16.625V12H26.125V16.75H30.875ZM22.5625 15.5625V14.375H20.1875V15.5625V20.3125V21.5H22.5625V20.3125V15.5625Z" fill="#00ABC2"/>
</svg>
