<svg width="36" height="37" viewBox="0 0 36 37" fill="none" xmlns="http://www.w3.org/2000/svg">
<path d="M25.8047 29.5391C23.5547 31.0859 20.8828 32 18 32C15.0469 32 12.375 31.0859 10.125 29.5391L14.2031 25.4609C15.3281 26.0938 16.5938 26.375 18 26.375C19.3359 26.375 20.6016 26.0938 21.7266 25.4609L25.8047 29.5391ZM32.2031 29.5391C34.5234 26.5156 36 22.7188 36 18.5C36 14.3516 34.5234 10.5547 32.2031 7.46094L33.0469 6.61719L34.6641 5L31.5 1.83594L29.8828 3.45312L29.0391 4.29688C25.9453 1.97656 22.1484 0.5 18 0.5C13.7812 0.5 9.98438 1.97656 6.96094 4.29688L6.04688 3.45312L4.5 1.83594L1.26562 5L2.88281 6.61719L3.72656 7.46094C1.40625 10.5547 0 14.3516 0 18.5C0 22.7188 1.40625 26.5156 3.72656 29.5391L2.88281 30.4531L1.26562 32L4.5 35.2344L6.04688 33.6172L6.96094 32.7734C9.98438 35.0938 13.7812 36.5 18 36.5C22.1484 36.5 25.9453 35.0938 29.0391 32.7734L29.8828 33.6172L31.5 35.2344L34.6641 32L33.0469 30.4531L32.2031 29.5391ZM28.9688 26.375L24.8906 22.2969C25.5234 21.1719 25.875 19.9062 25.875 18.5C25.875 17.1641 25.5234 15.8984 24.8906 14.7734L28.9688 10.6953C30.5156 12.9453 31.5 15.6172 31.5 18.5C31.5 21.4531 30.5156 24.125 28.9688 26.375ZM25.8047 7.53125L21.7266 11.6094C20.6016 10.9766 19.3359 10.625 17.9297 10.625C16.5938 10.625 15.3281 10.9766 14.2031 11.6094L10.125 7.53125C12.375 5.98438 15.0469 5 18 5C20.8828 5 23.5547 5.98438 25.8047 7.53125ZM11.0391 22.2969L6.96094 26.375C5.41406 24.125 4.5 21.4531 4.5 18.5C4.5 15.6172 5.41406 12.9453 6.96094 10.6953L11.0391 14.7734C10.4062 15.8984 10.125 17.1641 10.125 18.5703C10.125 19.9062 10.4062 21.1719 11.0391 22.2969ZM21.375 18.5C21.375 20.3984 19.8281 21.875 18 21.875C16.1016 21.875 14.625 20.3984 14.625 18.5C14.625 16.6719 16.1016 15.125 18 15.125C19.8281 15.125 21.375 16.6719 21.375 18.5Z" fill="#00ABC2"/>
</svg>
