<svg width="21" height="16" viewBox="0 0 21 16" fill="none" xmlns="http://www.w3.org/2000/svg">
<path d="M17.0029 1.44922C17.0029 1.44922 17.0029 1.44922 16.9697 1.44922C15.708 0.851562 14.3799 0.453125 13.0186 0.220703C12.9854 0.1875 12.9521 0.220703 12.9521 0.220703C12.7529 0.552734 12.5869 0.917969 12.4541 1.25C10.96 1.01758 9.46582 1.01758 7.97168 1.25C7.83887 0.917969 7.67285 0.552734 7.47363 0.220703C7.47363 0.220703 7.44043 0.1875 7.40723 0.220703C6.0459 0.453125 4.71777 0.851562 3.45605 1.44922C3.42285 1.44922 3.42285 1.44922 3.42285 1.44922C0.899414 5.23438 0.202148 8.91992 0.53418 12.5723C0.53418 12.5723 0.53418 12.6055 0.567383 12.6055C2.02832 13.7012 3.68848 14.5312 5.44824 15.0625C5.44824 15.0957 5.48145 15.0625 5.51465 15.0625C5.87988 14.5312 6.21191 14 6.51074 13.4355C6.51074 13.4023 6.51074 13.3691 6.47754 13.3359C5.94629 13.1367 5.41504 12.9043 4.9502 12.6055C4.91699 12.6055 4.88379 12.5391 4.9502 12.5059C5.0498 12.4395 5.14941 12.373 5.24902 12.2734C5.24902 12.2734 5.28223 12.2734 5.31543 12.2734C8.50293 13.7344 11.9561 13.7344 15.1104 12.2734C15.1436 12.2734 15.1436 12.2734 15.1768 12.2734C15.2764 12.373 15.376 12.4395 15.4756 12.5059C15.5088 12.5391 15.5088 12.6055 15.4756 12.6055C14.9775 12.9043 14.4795 13.1367 13.9482 13.3359C13.915 13.3691 13.915 13.4023 13.915 13.4355C14.2139 14 14.5459 14.5312 14.9111 15.0625C14.9443 15.0625 14.9443 15.0957 14.9775 15.0625C16.7373 14.5312 18.3975 13.7012 19.8584 12.6055C19.8916 12.6055 19.8916 12.5723 19.8916 12.5723C20.29 8.35547 19.1943 4.70312 17.0029 1.44922ZM6.97559 10.3477C6.0127 10.3477 5.21582 9.45117 5.21582 8.38867C5.21582 7.29297 6.0127 6.42969 6.97559 6.42969C7.97168 6.42969 8.73535 7.29297 8.73535 8.38867C8.73535 9.45117 7.93848 10.3477 6.97559 10.3477ZM13.4502 10.3477C12.4873 10.3477 11.7236 9.45117 11.7236 8.38867C11.7236 7.29297 12.4873 6.42969 13.4502 6.42969C14.4463 6.42969 15.2432 7.29297 15.21 8.38867C15.21 9.45117 14.4463 10.3477 13.4502 10.3477Z" fill="#7C8296"/>
</svg>
