<svg width="37" height="47" viewBox="0 0 37 47" fill="none" xmlns="http://www.w3.org/2000/svg">
<path d="M36.5895 20.6817L17.1187 46.0277C16.7489 46.5152 16.1642 46.7884 15.5804 46.7884C15.3665 46.7884 15.1526 46.7493 14.9577 46.6913C14.1591 46.418 13.6334 45.6774 13.6334 44.8387V27.2914H1.95089C1.19126 27.2914 0.509586 26.862 0.178739 26.1604C-0.132146 25.4778 -0.0351716 24.6791 0.45159 24.0936L19.9224 0.697287C20.4481 0.0737332 21.3047 -0.16047 22.0834 0.112765C22.863 0.385982 23.3687 1.12665 23.3687 1.94537V17.5429H35.0512C35.7909 17.5429 36.4725 17.9713 36.8034 18.6349C37.1343 19.2975 37.0373 20.0972 36.5895 20.6817Z" fill="#563079"/>
</svg>
