<svg width="19" height="15" viewBox="0 0 19 15" fill="none" xmlns="http://www.w3.org/2000/svg">
<path fill-rule="evenodd" clip-rule="evenodd" d="M16.2093 13.2469C16.8144 10.3555 17.8903 3.90011 18.0921 1.27762C18.1593 1.07589 18.1593 0.874162 18.0921 0.605189C18.0921 0.470702 17.9576 0.268973 17.8903 0.201729C17.6886 0 17.3524 0 17.2179 0C16.6127 0 15.6041 0.336216 10.9643 2.28627C9.35045 2.9587 6.12277 4.30357 1.28126 6.45535C0.474342 6.79156 0.0708832 7.06054 0.00363994 7.39675C-0.0552114 7.86756 0.607031 8.08084 1.44942 8.35214C1.56954 8.39082 1.69333 8.43069 1.81921 8.47264C2.69337 8.74162 3.8365 9.07783 4.44169 9.07783C4.97964 9.07783 5.58483 8.8761 6.25726 8.4054C10.7626 5.31221 13.1161 3.76562 13.2506 3.76562C13.2982 3.76562 13.3458 3.75718 13.3905 3.74927C13.4719 3.73486 13.5433 3.7222 13.5868 3.76562C13.7213 3.90011 13.7213 4.03459 13.654 4.10184C13.6002 4.3709 10.8764 6.92241 9.65259 8.06875C9.34718 8.35484 9.1352 8.55341 9.08147 8.60713C8.95762 8.73099 8.83143 8.84903 8.7095 8.96308C7.90469 9.71593 7.28535 10.2953 8.74526 11.2296C9.29383 11.5953 9.75106 11.9103 10.1919 12.214C10.8858 12.692 11.539 13.1419 12.4436 13.7176C12.6565 13.8545 12.8591 13.9982 13.056 14.1379C13.7299 14.6161 14.3376 15.0473 15.0661 14.9952C15.5368 14.928 16.0075 14.5245 16.2093 13.2469Z" fill="#7C8296"/>
</svg>
