<svg width="18" height="15" viewBox="0 0 18 15" fill="none" xmlns="http://www.w3.org/2000/svg">
<path d="M15.8447 4.17188C15.8447 4.33789 15.8447 4.4707 15.8447 4.63672C15.8447 9.25195 12.3584 14.5312 5.9502 14.5312C3.95801 14.5312 2.13184 13.9668 0.604492 12.9707C0.870117 13.0039 1.13574 13.0371 1.43457 13.0371C3.06152 13.0371 4.55566 12.4727 5.75098 11.543C4.22363 11.5098 2.92871 10.5137 2.49707 9.11914C2.72949 9.15234 2.92871 9.18555 3.16113 9.18555C3.45996 9.18555 3.79199 9.11914 4.05762 9.05273C2.46387 8.7207 1.26855 7.32617 1.26855 5.63281V5.59961C1.7334 5.86523 2.29785 5.99805 2.8623 6.03125C1.89941 5.40039 1.30176 4.33789 1.30176 3.14258C1.30176 2.47852 1.46777 1.88086 1.7666 1.38281C3.49316 3.47461 6.08301 4.86914 8.97168 5.03516C8.90527 4.76953 8.87207 4.50391 8.87207 4.23828C8.87207 2.3125 10.4326 0.751953 12.3584 0.751953C13.3545 0.751953 14.251 1.15039 14.915 1.84766C15.6787 1.68164 16.4424 1.38281 17.1064 0.984375C16.8408 1.81445 16.3096 2.47852 15.5791 2.91016C16.2764 2.84375 16.9736 2.64453 17.5713 2.37891C17.1064 3.07617 16.5088 3.67383 15.8447 4.17188Z" fill="#7C8296"/>
</svg>

