<svg width="579" height="570" viewBox="0 0 579 570" fill="none" xmlns="http://www.w3.org/2000/svg">
<ellipse cx="312.5" cy="302" rx="266.5" ry="268" fill="url(#paint0_radial_145_34)"/>
<rect y="255.534" width="154" height="214.466" rx="17" fill="white"/>
<rect x="181" y="150.583" width="154" height="319.417" rx="17" fill="white"/>
<rect x="7" width="204" height="94" rx="17" fill="white"/>
<rect x="362" width="154" height="470" rx="17" fill="white"/>
<rect x="379" y="14" width="119" height="421" rx="10" fill="url(#paint1_linear_145_34)"/>
<path d="M17 143C68.2929 222.251 239.903 382.207 516 388.025" stroke="#FFC887" stroke-width="3"/>
<path d="M516 388.025C239.903 382.207 68.2929 222.251 17 143V464.665H516V388.025Z" fill="url(#paint2_linear_145_34)"/>
<circle cx="17" cy="144" r="10" fill="#FFC887"/>
<circle cx="516" cy="388" r="10" fill="#FFC887"/>
<rect x="43" y="31" width="14" height="4" fill="#D38BFF"/>
<rect x="43" y="59" width="14" height="4" fill="#FFC887"/>
<path d="M69.016 29.524V32.32H72.064V33.22H69.016V36.1H72.424V37H67.924V28.624H72.424V29.524H69.016ZM76.7523 31.324H75.3723V37H74.2803V31.324H73.4283V30.424H74.2803V29.956C74.2803 29.22 74.4683 28.684 74.8443 28.348C75.2283 28.004 75.8403 27.832 76.6803 27.832V28.744C76.2003 28.744 75.8603 28.84 75.6603 29.032C75.4683 29.216 75.3723 29.524 75.3723 29.956V30.424H76.7523V31.324ZM80.7016 31.324H79.3216V37H78.2296V31.324H77.3776V30.424H78.2296V29.956C78.2296 29.22 78.4176 28.684 78.7936 28.348C79.1776 28.004 79.7896 27.832 80.6296 27.832V28.744C80.1496 28.744 79.8096 28.84 79.6096 29.032C79.4176 29.216 79.3216 29.524 79.3216 29.956V30.424H80.7016V31.324ZM82.5388 29.356C82.3308 29.356 82.1548 29.284 82.0108 29.14C81.8668 28.996 81.7948 28.82 81.7948 28.612C81.7948 28.404 81.8668 28.228 82.0108 28.084C82.1548 27.94 82.3308 27.868 82.5388 27.868C82.7388 27.868 82.9068 27.94 83.0428 28.084C83.1868 28.228 83.2588 28.404 83.2588 28.612C83.2588 28.82 83.1868 28.996 83.0428 29.14C82.9068 29.284 82.7388 29.356 82.5388 29.356ZM83.0668 30.424V37H81.9748V30.424H83.0668ZM84.5199 33.7C84.5199 33.02 84.6559 32.428 84.9279 31.924C85.1999 31.412 85.5759 31.016 86.0559 30.736C86.5439 30.456 87.0999 30.316 87.7239 30.316C88.5319 30.316 89.1959 30.512 89.7159 30.904C90.2439 31.296 90.5919 31.84 90.7599 32.536H89.5839C89.4719 32.136 89.2519 31.82 88.9239 31.588C88.6039 31.356 88.2039 31.24 87.7239 31.24C87.0999 31.24 86.5959 31.456 86.2119 31.888C85.8279 32.312 85.6359 32.916 85.6359 33.7C85.6359 34.492 85.8279 35.104 86.2119 35.536C86.5959 35.968 87.0999 36.184 87.7239 36.184C88.2039 36.184 88.6039 36.072 88.9239 35.848C89.2439 35.624 89.4639 35.304 89.5839 34.888H90.7599C90.5839 35.56 90.2319 36.1 89.7039 36.508C89.1759 36.908 88.5159 37.108 87.7239 37.108C87.0999 37.108 86.5439 36.968 86.0559 36.688C85.5759 36.408 85.1999 36.012 84.9279 35.5C84.6559 34.988 84.5199 34.388 84.5199 33.7ZM92.781 29.356C92.573 29.356 92.397 29.284 92.253 29.14C92.109 28.996 92.037 28.82 92.037 28.612C92.037 28.404 92.109 28.228 92.253 28.084C92.397 27.94 92.573 27.868 92.781 27.868C92.981 27.868 93.149 27.94 93.285 28.084C93.429 28.228 93.501 28.404 93.501 28.612C93.501 28.82 93.429 28.996 93.285 29.14C93.149 29.284 92.981 29.356 92.781 29.356ZM93.309 30.424V37H92.217V30.424H93.309ZM101.17 33.46C101.17 33.668 101.158 33.888 101.134 34.12H95.8781C95.9181 34.768 96.1381 35.276 96.5381 35.644C96.9461 36.004 97.4381 36.184 98.0141 36.184C98.4861 36.184 98.8781 36.076 99.1901 35.86C99.5101 35.636 99.7341 35.34 99.8621 34.972H101.038C100.862 35.604 100.51 36.12 99.9821 36.52C99.4541 36.912 98.7981 37.108 98.0141 37.108C97.3901 37.108 96.8301 36.968 96.3341 36.688C95.8461 36.408 95.4621 36.012 95.1821 35.5C94.9021 34.98 94.7621 34.38 94.7621 33.7C94.7621 33.02 94.8981 32.424 95.1701 31.912C95.4421 31.4 95.8221 31.008 96.3101 30.736C96.8061 30.456 97.3741 30.316 98.0141 30.316C98.6381 30.316 99.1901 30.452 99.6701 30.724C100.15 30.996 100.518 31.372 100.774 31.852C101.038 32.324 101.17 32.86 101.17 33.46ZM100.042 33.232C100.042 32.816 99.9501 32.46 99.7661 32.164C99.5821 31.86 99.3301 31.632 99.0101 31.48C98.6981 31.32 98.3501 31.24 97.9661 31.24C97.4141 31.24 96.9421 31.416 96.5501 31.768C96.1661 32.12 95.9461 32.608 95.8901 33.232H100.042ZM105.816 30.304C106.616 30.304 107.264 30.548 107.76 31.036C108.256 31.516 108.504 32.212 108.504 33.124V37H107.424V33.28C107.424 32.624 107.26 32.124 106.932 31.78C106.604 31.428 106.156 31.252 105.588 31.252C105.012 31.252 104.552 31.432 104.208 31.792C103.872 32.152 103.704 32.676 103.704 33.364V37H102.612V30.424H103.704V31.36C103.92 31.024 104.212 30.764 104.58 30.58C104.956 30.396 105.368 30.304 105.816 30.304ZM109.879 33.7C109.879 33.02 110.015 32.428 110.287 31.924C110.559 31.412 110.935 31.016 111.415 30.736C111.903 30.456 112.459 30.316 113.083 30.316C113.891 30.316 114.555 30.512 115.075 30.904C115.603 31.296 115.951 31.84 116.119 32.536H114.943C114.831 32.136 114.611 31.82 114.283 31.588C113.963 31.356 113.563 31.24 113.083 31.24C112.459 31.24 111.955 31.456 111.571 31.888C111.187 32.312 110.995 32.916 110.995 33.7C110.995 34.492 111.187 35.104 111.571 35.536C111.955 35.968 112.459 36.184 113.083 36.184C113.563 36.184 113.963 36.072 114.283 35.848C114.603 35.624 114.823 35.304 114.943 34.888H116.119C115.943 35.56 115.591 36.1 115.063 36.508C114.535 36.908 113.875 37.108 113.083 37.108C112.459 37.108 111.903 36.968 111.415 36.688C110.935 36.408 110.559 36.012 110.287 35.5C110.015 34.988 109.879 34.388 109.879 33.7ZM123.24 30.424L119.28 40.096H118.152L119.448 36.928L116.796 30.424H118.008L120.072 35.752L122.112 30.424H123.24Z" fill="#514967"/>
<path d="M67.516 61.812C67.516 60.996 67.7 60.264 68.068 59.616C68.436 58.96 68.936 58.448 69.568 58.08C70.208 57.712 70.916 57.528 71.692 57.528C72.604 57.528 73.4 57.748 74.08 58.188C74.76 58.628 75.256 59.252 75.568 60.06H74.26C74.028 59.556 73.692 59.168 73.252 58.896C72.82 58.624 72.3 58.488 71.692 58.488C71.108 58.488 70.584 58.624 70.12 58.896C69.656 59.168 69.292 59.556 69.028 60.06C68.764 60.556 68.632 61.14 68.632 61.812C68.632 62.476 68.764 63.06 69.028 63.564C69.292 64.06 69.656 64.444 70.12 64.716C70.584 64.988 71.108 65.124 71.692 65.124C72.3 65.124 72.82 64.992 73.252 64.728C73.692 64.456 74.028 64.068 74.26 63.564H75.568C75.256 64.364 74.76 64.984 74.08 65.424C73.4 65.856 72.604 66.072 71.692 66.072C70.916 66.072 70.208 65.892 69.568 65.532C68.936 65.164 68.436 64.656 68.068 64.008C67.7 63.36 67.516 62.628 67.516 61.812ZM80.0615 66.108C79.4455 66.108 78.8855 65.968 78.3815 65.688C77.8855 65.408 77.4935 65.012 77.2055 64.5C76.9255 63.98 76.7855 63.38 76.7855 62.7C76.7855 62.028 76.9295 61.436 77.2175 60.924C77.5135 60.404 77.9135 60.008 78.4175 59.736C78.9215 59.456 79.4855 59.316 80.1095 59.316C80.7335 59.316 81.2975 59.456 81.8015 59.736C82.3055 60.008 82.7015 60.4 82.9895 60.912C83.2855 61.424 83.4335 62.02 83.4335 62.7C83.4335 63.38 83.2815 63.98 82.9775 64.5C82.6815 65.012 82.2775 65.408 81.7655 65.688C81.2535 65.968 80.6855 66.108 80.0615 66.108ZM80.0615 65.148C80.4535 65.148 80.8215 65.056 81.1655 64.872C81.5095 64.688 81.7855 64.412 81.9935 64.044C82.2095 63.676 82.3175 63.228 82.3175 62.7C82.3175 62.172 82.2135 61.724 82.0055 61.356C81.7975 60.988 81.5255 60.716 81.1895 60.54C80.8535 60.356 80.4895 60.264 80.0975 60.264C79.6975 60.264 79.3295 60.356 78.9935 60.54C78.6655 60.716 78.4015 60.988 78.2015 61.356C78.0015 61.724 77.9015 62.172 77.9015 62.7C77.9015 63.236 77.9975 63.688 78.1895 64.056C78.3895 64.424 78.6535 64.7 78.9815 64.884C79.3095 65.06 79.6695 65.148 80.0615 65.148ZM87.1973 66.108C86.6933 66.108 86.2413 66.024 85.8413 65.856C85.4413 65.68 85.1253 65.44 84.8933 65.136C84.6613 64.824 84.5333 64.468 84.5093 64.068H85.6373C85.6693 64.396 85.8213 64.664 86.0933 64.872C86.3733 65.08 86.7373 65.184 87.1853 65.184C87.6013 65.184 87.9293 65.092 88.1693 64.908C88.4093 64.724 88.5293 64.492 88.5293 64.212C88.5293 63.924 88.4013 63.712 88.1453 63.576C87.8893 63.432 87.4933 63.292 86.9573 63.156C86.4693 63.028 86.0693 62.9 85.7573 62.772C85.4533 62.636 85.1893 62.44 84.9653 62.184C84.7493 61.92 84.6413 61.576 84.6413 61.152C84.6413 60.816 84.7413 60.508 84.9413 60.228C85.1413 59.948 85.4253 59.728 85.7933 59.568C86.1613 59.4 86.5813 59.316 87.0533 59.316C87.7813 59.316 88.3693 59.5 88.8173 59.868C89.2653 60.236 89.5053 60.74 89.5373 61.38H88.4453C88.4213 61.036 88.2813 60.76 88.0253 60.552C87.7773 60.344 87.4413 60.24 87.0173 60.24C86.6253 60.24 86.3133 60.324 86.0813 60.492C85.8493 60.66 85.7333 60.88 85.7333 61.152C85.7333 61.368 85.8013 61.548 85.9373 61.692C86.0813 61.828 86.2573 61.94 86.4653 62.028C86.6813 62.108 86.9773 62.2 87.3533 62.304C87.8253 62.432 88.2093 62.56 88.5053 62.688C88.8013 62.808 89.0533 62.992 89.2613 63.24C89.4773 63.488 89.5893 63.812 89.5973 64.212C89.5973 64.572 89.4973 64.896 89.2973 65.184C89.0973 65.472 88.8133 65.7 88.4453 65.868C88.0853 66.028 87.6693 66.108 87.1973 66.108ZM92.4708 60.324V64.2C92.4708 64.52 92.5388 64.748 92.6748 64.884C92.8108 65.012 93.0468 65.076 93.3828 65.076H94.1868V66H93.2028C92.5948 66 92.1388 65.86 91.8348 65.58C91.5308 65.3 91.3788 64.84 91.3788 64.2V60.324H90.5268V59.424H91.3788V57.768H92.4708V59.424H94.1868V60.324H92.4708Z" fill="#514967"/>
<defs>
<radialGradient id="paint0_radial_145_34" cx="0" cy="0" r="1" gradientUnits="userSpaceOnUse" gradientTransform="translate(312.5 302) rotate(90) scale(268 266.5)">
<stop stop-color="#D1D1EB"/>
<stop offset="1" stop-color="#D1D1EB" stop-opacity="0"/>
</radialGradient>
<linearGradient id="paint1_linear_145_34" x1="438.5" y1="-326" x2="438.5" y2="317.5" gradientUnits="userSpaceOnUse">
<stop stop-color="#9E01FF"/>
<stop offset="1" stop-color="#9E01FF" stop-opacity="0"/>
</linearGradient>
<linearGradient id="paint2_linear_145_34" x1="266.5" y1="143" x2="266.5" y2="464.665" gradientUnits="userSpaceOnUse">
<stop stop-color="#FFC887"/>
<stop offset="1" stop-color="#FF8787" stop-opacity="0"/>
</linearGradient>
</defs>
</svg>
