<svg width="160" height="122" viewBox="0 0 160 122" fill="none" xmlns="http://www.w3.org/2000/svg">
<path d="M59.0381 122H76.1386V104.995H59.0381V122Z" fill="#84D6D7"/>
<path d="M91.3105 81.4889H59.0381V98.4994H91.3105H97.1795V81.4946H91.3105V81.4889Z" fill="#33BBC7"/>
<path d="M59.0381 57.9998V75.0046H112.011V57.9998H59.0381Z" fill="#11A9BC"/>
<path d="M38 98.4994H55.0948V81.4889H38V98.4994Z" fill="#33BBC7"/>
<path d="M29.816 1.03988H1.11198L0.331984 8.37188H9.89998L6.67598 38.9999H15.724L18.948 8.37188H29.036L29.816 1.03988ZM59.6087 12.7919C59.6087 6.03188 53.0567 1.03988 44.7367 1.03988H32.8287L28.8247 38.9999H37.4567L38.8087 26.1559L47.4927 38.9999H57.8927L47.4927 25.7399C54.7207 24.4399 59.6087 20.0719 59.6087 12.7919ZM44.4767 8.16388C48.6367 8.16388 50.7167 10.5039 50.7167 13.3639C50.7167 16.7439 48.0127 19.7079 43.2807 19.7079H39.4847L40.7327 8.16388H44.4767ZM62.5289 22.9839C61.6449 31.6679 67.3649 39.5199 77.4009 39.5199C87.5409 39.5199 94.6129 33.2799 95.7049 22.9839L97.9929 1.03988H89.1529L86.8129 23.5039C86.2409 28.7039 82.3409 31.7199 78.2329 31.7199C74.0209 31.7199 70.7969 28.6519 71.3169 23.5039L73.6569 1.03988H64.8169L62.5289 22.9839ZM113.357 31.9279C109.925 31.9279 107.325 30.3679 106.857 26.7799H98.0688C98.9528 34.4759 105.141 39.5199 113.045 39.5199C121.313 39.5199 128.177 35.6719 128.177 28.4959C128.177 15.9119 110.289 17.9919 110.289 11.3879C110.289 9.25588 112.213 8.11188 114.761 8.11188C118.817 8.11188 120.273 10.1919 120.741 12.6359H129.217C128.957 6.39588 123.601 0.519877 115.437 0.519877C107.325 0.519877 101.657 5.04387 101.657 11.9599C101.657 24.3879 119.337 22.1519 119.337 28.3919C119.337 30.5239 117.465 31.9279 113.357 31.9279ZM159.899 1.03988H131.195L130.415 8.37188H139.983L136.759 38.9999H145.807L149.031 8.37188H159.119L159.899 1.03988Z" fill="white"/>
</svg>
