<svg width="47" height="44" viewBox="0 0 47 44" fill="none" xmlns="http://www.w3.org/2000/svg">
<path d="M39.9128 16.73V29.6658C39.9128 33.4599 36.8357 36.537 33.0416 36.537H13.4138C9.61971 36.537 6.54259 33.4599 6.54259 29.6658V16.73H0V29.6658C0 37.0449 6.00485 43.0796 13.4138 43.0796H33.0416C40.4207 43.0796 46.4554 37.0748 46.4554 29.6658V16.73H39.9128Z" fill="url(#paint0_linear_15_822)"/>
<path d="M15.6843 30.0542C17.7962 30.0542 19.5083 28.3422 19.5083 26.2302C19.5083 24.1183 17.7962 22.4062 15.6843 22.4062C13.5723 22.4062 11.8603 24.1183 11.8603 26.2302C11.8603 28.3422 13.5723 30.0542 15.6843 30.0542Z" fill="#D23FFC"/>
<path d="M30.7114 30.0542C32.8233 30.0542 34.5354 28.3422 34.5354 26.2302C34.5354 24.1183 32.8233 22.4062 30.7114 22.4062C28.5994 22.4062 26.8874 24.1183 26.8874 26.2302C26.8874 28.3422 28.5994 30.0542 30.7114 30.0542Z" fill="#D23FFC"/>
<path d="M18.8809 14.4597H16.9689C16.9689 11.3528 19.329 8.78352 22.3464 8.4549V0.0600586C20.3746 0.149683 18.4925 0.59781 16.7896 1.31481C15.4453 1.88243 14.5789 3.19692 14.5789 4.66079V4.69066C14.5789 5.61678 15.2362 6.42341 16.1324 6.54291C17.2378 6.69228 18.1639 5.82591 18.1639 4.75042V3.97367H20.0759V4.63091C20.0759 6.63253 18.5523 8.3354 16.5506 8.42502C14.4295 8.54452 12.6669 6.84166 12.6669 4.72054V3.73466C11.4122 4.75041 10.3367 5.91553 9.41055 7.23003C8.93255 7.91715 9.1118 8.87314 9.8288 9.29139C11.5317 10.3669 12.6968 12.249 12.6968 14.4V14.5792H10.7848V14.4C10.7848 13.205 10.2769 12.1295 9.4703 11.3826C8.69355 10.6358 7.40894 11.0241 7.11019 12.0399C6.69194 13.4739 6.45294 14.9676 6.45294 16.5211H20.2253C21.3904 16.5211 22.3464 15.5651 22.3464 14.4V10.337C20.3746 10.6955 18.8809 12.3984 18.8809 14.4597Z" fill="url(#paint1_linear_15_822)"/>
<path d="M29.845 14.5789H27.933C27.933 12.4578 26.3197 10.6952 24.2285 10.4861V14.4594C24.2285 15.6246 25.1845 16.5806 26.3496 16.5806H39.8829C39.853 14.9673 39.614 13.3839 39.1659 11.8902C38.8672 10.9043 37.6722 10.516 36.8954 11.1433C35.9693 11.8902 35.3718 13.0553 35.3718 14.3399V14.5192H33.4598V14.3399C33.4598 12.1591 34.6249 10.2471 36.3577 9.17159C37.0747 8.72347 37.3137 7.79735 36.8058 7.11023C36.0291 6.00485 35.1029 4.98911 34.0872 4.09286V4.69036C34.0872 6.69198 32.5636 8.39485 30.562 8.48447C28.4408 8.60397 26.6782 6.9011 26.6782 4.77998V4.00324H28.5902V4.72024C28.5902 5.64636 29.2475 6.45297 30.1437 6.57247C31.2491 6.72185 32.1752 5.85548 32.1752 4.77998C32.1752 3.37586 31.3686 2.06137 30.0541 1.46388C28.2616 0.62738 26.26 0.119499 24.1986 0V8.48447C27.3653 8.78322 29.845 11.4122 29.845 14.5789Z" fill="url(#paint2_linear_15_822)"/>
<defs>
<linearGradient id="paint0_linear_15_822" x1="0.00283811" y1="29.8904" x2="46.4532" y2="29.8904" gradientUnits="userSpaceOnUse">
<stop stop-color="#EE00FF"/>
<stop offset="1" stop-color="#7C01FF"/>
</linearGradient>
<linearGradient id="paint1_linear_15_822" x1="27.6968" y1="-1.43144" x2="6.30299" y2="21.3768" gradientUnits="userSpaceOnUse">
<stop stop-color="#EE00FF"/>
<stop offset="1" stop-color="#7C01FF"/>
</linearGradient>
<linearGradient id="paint2_linear_15_822" x1="34.9233" y1="5.32" x2="14.7193" y2="26.8598" gradientUnits="userSpaceOnUse">
<stop stop-color="#EE00FF"/>
<stop offset="1" stop-color="#7C01FF"/>
</linearGradient>
</defs>
</svg>
