<svg width="181" height="44" viewBox="0 0 181 44" fill="none" xmlns="http://www.w3.org/2000/svg">
<path d="M68.3836 23.0932C68.3836 24.6168 67.6666 26.0508 65.8442 26.8873C68.1446 27.5744 68.9811 30.0242 68.9811 31.2491C68.9811 35.6108 65.6948 37.0149 61.6318 37.0149C58.5249 37.0149 55.4477 37.0149 52.3408 37.0149V17.417C55.4179 17.417 58.5249 17.417 61.6318 17.417C65.5156 17.417 68.3836 19.1497 68.3836 23.0932ZM55.9855 25.2741H61.6318C63.9621 25.2741 64.709 24.2882 64.709 23.1828C64.709 22.2866 63.992 20.763 61.6318 20.763H55.9855V25.2741ZM55.9855 33.5793H61.6318C63.1555 33.5793 65.3065 33.0714 65.3065 31.2192C65.3065 29.4566 63.1555 28.5304 61.6318 28.5304H55.9855V33.5793Z" fill="white"/>
<path d="M85.0538 30.1139C85.0538 34.0873 82.3352 37.3138 77.8539 37.3138C73.3727 37.3138 70.684 34.0873 70.684 30.1139C70.684 26.1704 73.4324 22.9141 77.8241 22.9141C82.2157 22.9141 85.0538 26.1704 85.0538 30.1139ZM74.0897 30.1139C74.0897 32.2051 75.3444 34.1769 77.8539 34.1769C80.3335 34.1769 81.6182 32.2051 81.6182 30.1139C81.6182 28.0525 80.1543 26.0211 77.8539 26.0211C75.3743 26.0211 74.0897 28.0525 74.0897 30.1139Z" fill="white"/>
<path d="M91.925 19.2993V23.2129H95.7191V26.1407H91.8951V32.1156C91.8951 33.4301 92.6121 34.0874 93.6876 34.0874C94.2254 34.0874 94.8228 33.9081 95.3307 33.6691L96.2867 36.567C95.3008 36.9554 94.4942 37.1346 93.4486 37.1645C90.4611 37.284 88.4894 35.5811 88.4894 32.1156V26.1407H85.9201V23.2129H88.4894V19.6578L91.925 19.2993Z" fill="white"/>
<path d="M114.481 23.0932C114.481 24.6168 113.764 26.0508 111.941 26.8873C114.242 27.5744 115.078 30.0242 115.078 31.2491C115.078 35.6108 111.792 37.0149 107.729 37.0149C104.622 37.0149 101.545 37.0149 98.4377 37.0149V17.417C101.515 17.417 104.622 17.417 107.729 17.417C111.583 17.417 114.481 19.1497 114.481 23.0932ZM102.082 25.2741H107.729C110.059 25.2741 110.806 24.2882 110.806 23.1828C110.806 22.2866 110.089 20.763 107.729 20.763H102.082V25.2741ZM102.082 33.5793H107.729C109.252 33.5793 111.403 33.0714 111.403 31.2192C111.403 29.4566 109.252 28.5304 107.729 28.5304H102.082V33.5793Z" fill="white"/>
<path d="M120.575 23.2131L120.814 24.7964C121.89 23.0936 123.294 22.8247 124.698 22.8247C126.132 22.8247 127.506 23.3923 128.253 24.1392L126.699 27.0968C126.012 26.4993 125.355 26.2006 124.25 26.2006C122.457 26.2006 120.814 27.1566 120.814 29.6959V36.9854H117.408V23.1832H120.575V23.2131Z" fill="white"/>
<path d="M140.502 23.2127H143.788V37.0149H140.561L140.382 35.0133C139.605 36.6265 137.454 37.4331 135.901 37.463C131.808 37.4929 128.791 34.9834 128.791 30.1138C128.791 25.3637 131.957 22.8542 135.99 22.8841C137.843 22.8841 139.605 23.7504 140.382 25.1247L140.502 23.2127ZM132.226 30.0839C132.226 32.7129 134.049 34.2962 136.319 34.2962C141.697 34.2962 141.697 25.9313 136.319 25.9313C134.049 25.9313 132.226 27.4549 132.226 30.0839Z" fill="white"/>
<path d="M150.39 19.2993C150.39 21.9582 146.357 21.9582 146.357 19.2993C146.357 16.6405 150.39 16.6405 150.39 19.2993Z" fill="url(#paint0_linear_15_1298)"/>
<path d="M150.091 23.1528H146.686V37.0148H150.091V23.1528Z" fill="white"/>
<path d="M163.326 37.0153V29.7856C163.326 27.6943 162.191 26.0811 159.98 26.0811C157.889 26.0811 156.455 27.8437 156.455 29.935V36.9854H153.079V23.1534H156.126L156.335 25.0355C157.739 23.6612 159.143 22.9741 160.876 22.9741C164.133 22.9741 166.732 25.4239 166.732 29.7557V37.0153H163.326Z" fill="white"/>
<path d="M180.384 23.213V24.8262L174.021 33.6393H180.444V36.9853H168.823V35.5513L175.425 26.2901H169.331V23.1831H180.384V23.213Z" fill="white"/>
<path d="M39.9128 16.73V29.6658C39.9128 33.4599 36.8357 36.537 33.0416 36.537H13.4138C9.61971 36.537 6.54259 33.4599 6.54259 29.6658V16.73H0V29.6658C0 37.0449 6.00485 43.0796 13.4138 43.0796H33.0416C40.4207 43.0796 46.4554 37.0748 46.4554 29.6658V16.73H39.9128Z" fill="url(#paint1_linear_15_1298)"/>
<path d="M15.6843 30.0542C17.7962 30.0542 19.5083 28.3422 19.5083 26.2302C19.5083 24.1183 17.7962 22.4062 15.6843 22.4062C13.5723 22.4062 11.8603 24.1183 11.8603 26.2302C11.8603 28.3422 13.5723 30.0542 15.6843 30.0542Z" fill="#D23FFC"/>
<path d="M30.7114 30.0542C32.8233 30.0542 34.5354 28.3422 34.5354 26.2302C34.5354 24.1183 32.8233 22.4062 30.7114 22.4062C28.5994 22.4062 26.8874 24.1183 26.8874 26.2302C26.8874 28.3422 28.5994 30.0542 30.7114 30.0542Z" fill="#D23FFC"/>
<path d="M18.8809 14.4597H16.9689C16.9689 11.3528 19.329 8.78352 22.3464 8.4549V0.0600586C20.3746 0.149683 18.4925 0.59781 16.7896 1.31481C15.4453 1.88243 14.5789 3.19692 14.5789 4.66079V4.69066C14.5789 5.61678 15.2362 6.42341 16.1324 6.54291C17.2378 6.69228 18.1639 5.82591 18.1639 4.75042V3.97367H20.0759V4.63091C20.0759 6.63253 18.5523 8.3354 16.5506 8.42502C14.4295 8.54452 12.6669 6.84166 12.6669 4.72054V3.73466C11.4122 4.75041 10.3367 5.91553 9.41055 7.23003C8.93255 7.91715 9.1118 8.87314 9.8288 9.29139C11.5317 10.3669 12.6968 12.249 12.6968 14.4V14.5792H10.7848V14.4C10.7848 13.205 10.2769 12.1295 9.4703 11.3826C8.69355 10.6358 7.40894 11.0241 7.11019 12.0399C6.69194 13.4739 6.45294 14.9676 6.45294 16.5211H20.2253C21.3904 16.5211 22.3464 15.5651 22.3464 14.4V10.337C20.3746 10.6955 18.8809 12.3984 18.8809 14.4597Z" fill="url(#paint2_linear_15_1298)"/>
<path d="M29.845 14.5789H27.933C27.933 12.4578 26.3197 10.6952 24.2285 10.4861V14.4594C24.2285 15.6246 25.1845 16.5806 26.3496 16.5806H39.8829C39.853 14.9673 39.614 13.3839 39.1659 11.8902C38.8672 10.9043 37.6722 10.516 36.8954 11.1433C35.9693 11.8902 35.3718 13.0553 35.3718 14.3399V14.5192H33.4598V14.3399C33.4598 12.1591 34.6249 10.2471 36.3577 9.17159C37.0747 8.72347 37.3137 7.79735 36.8058 7.11023C36.0291 6.00486 35.1029 4.98911 34.0872 4.09286V4.69036C34.0872 6.69198 32.5636 8.39485 30.562 8.48447C28.4408 8.60397 26.6782 6.9011 26.6782 4.77998V4.00324H28.5902V4.72024C28.5902 5.64636 29.2475 6.45297 30.1437 6.57247C31.2491 6.72185 32.1752 5.85547 32.1752 4.77998C32.1752 3.37586 31.3686 2.06137 30.0541 1.46388C28.2616 0.62738 26.26 0.119499 24.1986 0V8.48447C27.3653 8.78322 29.845 11.4122 29.845 14.5789Z" fill="url(#paint3_linear_15_1298)"/>
<defs>
<linearGradient id="paint0_linear_15_1298" x1="151.143" y1="16.5517" x2="146.281" y2="21.4137" gradientUnits="userSpaceOnUse">
<stop stop-color="#EE00FF"/>
<stop offset="1" stop-color="#7C01FF"/>
</linearGradient>
<linearGradient id="paint1_linear_15_1298" x1="0.00283811" y1="29.8904" x2="46.4532" y2="29.8904" gradientUnits="userSpaceOnUse">
<stop stop-color="#EE00FF"/>
<stop offset="1" stop-color="#7C01FF"/>
</linearGradient>
<linearGradient id="paint2_linear_15_1298" x1="27.6968" y1="-1.43144" x2="6.30299" y2="21.3768" gradientUnits="userSpaceOnUse">
<stop stop-color="#EE00FF"/>
<stop offset="1" stop-color="#7C01FF"/>
</linearGradient>
<linearGradient id="paint3_linear_15_1298" x1="34.9233" y1="5.32" x2="14.7193" y2="26.8598" gradientUnits="userSpaceOnUse">
<stop stop-color="#EE00FF"/>
<stop offset="1" stop-color="#7C01FF"/>
</linearGradient>
</defs>
</svg>
